<?xml version="1.0" encoding="UTF-8"?>
<svg id="Layer_1" data-name="Layer 1" xmlns="http://www.w3.org/2000/svg" viewBox="0 0 14 14">
  <defs>
    <style>
      .cls-1 {
        fill: #8eef97;
      }
    </style>
  </defs>
  <path class="cls-1" d="M12,0H2C.9,0,0,.9,0,2v10c0,1.1.9,2,2,2h10c1.1,0,2-.9,2-2V2c0-1.1-.9-2-2-2ZM12,12H2V2h10v10Z"/>
  <path class="cls-1" d="M6,11h3.43c.63,0,1.14-.51,1.14-1.14v-5.15c0-.31-.25-.57-.57-.57s-.57.26-.57.57v2.29h-.57v-3.43c0-.31-.26-.57-.57-.57s-.57.26-.57.57v3.43h-.58v-2.86c0-.31-.25-.57-.57-.57s-.57.26-.57.57v4.6l-1.43-1.03c-.27-.25-.7-.24-.96.04s-.24.71.03.96l2.36,2.29Z"/>
</svg>